<svg width="232" height="104" viewBox="0 0 232 104" fill="none" xmlns="http://www.w3.org/2000/svg">
<path d="M126.591 54.1481V55.4916C128.586 56.0117 130.712 57.9619 129.497 61.4291L124.856 74.8209L117.395 54.1481H115.312L107.895 74.8209L102.646 59.8688C101.822 57.5285 102.429 55.9683 105.943 55.4482V54.1047H90.543V55.4482C91.9745 55.9683 92.6685 56.8351 93.406 58.9154L102.732 84.3988H107.417L113.664 67.4532L119.824 84.3988H124.509L133.575 59.3054C134.312 57.2685 135.267 55.925 136.698 55.4482V54.1047H126.591V54.1481Z" fill="#E85E4A"/>
<path d="M138.133 84.4422H153.532V83.0986C150.799 82.6653 150.019 82.3619 150.019 80.1949V58.3953C150.019 56.2284 150.756 55.8816 153.532 55.4916V54.1481H138.133V55.4916C140.866 55.925 141.647 56.2284 141.647 58.3953V80.1949C141.647 82.3619 140.909 82.7086 138.133 83.0986V84.4422Z" fill="#E85E4A"/>
<path d="M167.37 84.9622C175.309 84.9622 179.733 81.3217 179.733 75.3842C179.733 70.7903 177.131 68.3633 170.884 65.9796L168.672 65.1562C164.941 63.726 163.683 62.2091 163.683 60.1722C163.683 57.7019 165.505 55.7516 168.541 55.7516C172.315 55.7516 174.918 58.742 176.567 62.6425H178.085V55.6216C175.117 54.3251 171.911 53.6609 168.672 53.6713C161.21 53.6713 156.569 57.3118 156.569 63.2059C156.569 68.2333 159.996 70.4002 165.028 72.2638L167.283 73.0873C171.188 74.5608 172.662 76.0777 172.662 78.3313C172.662 81.105 170.32 82.8819 167.197 82.8819C163.423 82.8819 159.345 80.2816 157.827 75.0809H156.309V82.9686C157.393 83.532 162.425 84.9622 167.37 84.9622Z" fill="#E85E4A"/>
<path d="M207.406 75.0376L205.541 78.3747C203.719 81.6251 200.639 82.1018 197.299 82.1018C195.948 82.1671 194.597 81.991 193.308 81.5818V69.9669H195.954C199.034 69.9669 200.726 70.4436 201.81 72.5672L202.288 73.4774H203.719V64.0728H202.288L201.81 64.9829C200.726 67.1498 199.034 67.5832 195.954 67.5832H193.308V56.4017H197.212C200.032 56.4017 202.938 56.8351 205.02 60.1289L206.452 62.3825H207.883V54.0614H181.379V55.4049C184.112 55.8383 184.893 56.1417 184.893 58.3086V80.1082C184.893 82.2752 184.155 82.6219 181.379 83.012V84.3555H208.144L208.794 74.9509H207.406V75.0376Z" fill="#E85E4A"/>
<path d="M44.6484 33.4752C48.2922 32.8251 52.4566 30.6149 52.4566 26.1943C52.4566 21.687 48.1187 19.4767 41.1781 19.4767H24V20.8202C26.7329 21.2536 27.5137 21.557 27.5137 23.7239V45.5235C27.5137 47.6905 26.7763 48.0372 24 48.4273V49.7708H41.1781C49.2466 49.7708 54.4521 46.6503 54.4521 41.1896C54.4954 36.2186 50.0708 33.952 44.6484 33.4752ZM35.9292 21.817H37.1005C41.6119 21.817 43.6507 23.5506 43.6507 27.0177C43.6507 30.5715 41.5251 32.9985 37.4475 32.9985H35.9292V21.817ZM38.6621 47.4305C37.7461 47.4597 36.833 47.3125 35.9726 46.9971V35.2955H38.3151C43.3037 35.2955 45.3425 37.8092 45.3425 41.3196C45.2991 45.3198 42.7397 47.4305 38.6621 47.4305Z" fill="#E85E4A"/>
<path d="M90.543 49.7708H106.116V48.4273C103.383 47.9939 102.602 47.6905 102.602 45.5235V23.7239C102.602 21.557 103.34 21.2103 106.116 20.8202V19.4767H90.7165V20.8202C93.4494 21.2536 94.2302 21.557 94.2302 23.7239V45.5235C94.2302 47.6905 93.3192 48.0372 90.5863 48.4273L90.543 49.7708Z" fill="#E85E4A"/>
<path d="M123.035 50.2909C128.327 50.2909 133.272 47.8639 136.048 43.3566L134.617 42.4465C133.688 43.662 132.485 44.641 131.105 45.3037C129.726 45.9665 128.209 46.2943 126.678 46.2603C120.736 46.2603 117.005 41.5797 117.005 33.1719C117.005 25.8043 119.868 21.2536 124.64 21.2536C128.197 21.2536 131.32 23.7673 133.836 29.0547H135.398V21.0803C134.14 20.6036 129.498 19 124.64 19C114.966 19 107.809 25.4575 107.809 35.0355C107.908 44.3968 114.793 50.2909 123.035 50.2909Z" fill="#E85E4A"/>
<path d="M150.038 45.5235V23.7239C150.038 21.557 150.776 21.2103 153.552 20.8202V19.4767H138.152V20.8202C140.885 21.2536 141.666 21.557 141.666 23.7239V45.5235C141.666 47.6905 140.929 48.0372 138.152 48.4273V49.7708H153.552V48.4273C150.797 48.0372 150.038 47.6905 150.038 45.5235Z" fill="#E85E4A"/>
<path d="M167.305 43.7466L158.065 30.3982L163.575 24.8941C165.538 22.9694 167.955 21.5685 170.602 20.8202V19.4767H157.675V20.8202C159.107 21.1669 159.844 21.7737 159.844 22.7705C159.844 23.6806 159.237 24.7207 158.065 26.0642L150.734 34.2553L159.237 47.2138C160.842 49.7274 162.447 50.1175 166.091 50.1175C168.005 50.1329 169.918 50.0171 171.817 49.7708V48.4273C170.992 48.4273 169.344 46.6503 167.305 43.7466Z" fill="#E85E4A"/>
<path d="M84.3429 43.7466L77.8361 35.1221C81.7836 33.8653 84.8201 31.6117 84.8201 27.2344C84.8201 22.077 80.569 19.4767 72.5872 19.4767H55.9297V20.8202C58.6626 21.2536 59.4434 21.557 59.4434 23.7239V45.5235C59.4434 47.6905 58.7059 48.0372 55.9297 48.4273V49.7708H71.2858V48.4273C68.5964 47.9939 67.8155 47.6905 67.8155 45.5235V36.5523H68.553C69.3772 36.5523 69.8977 37.0291 70.3749 37.7658L76.7082 47.2138C78.3132 49.6407 79.7881 50.1175 83.3018 50.1175C85.245 50.1329 87.1871 50.0171 89.1146 49.7708V48.4273C88.247 48.4273 86.4685 46.5637 84.3429 43.7466ZM70.0712 34.485C69.321 34.4759 68.5759 34.3591 67.8589 34.1383V21.817H69.2904C73.7585 21.817 76.1877 23.7673 76.1877 27.8411C76.1877 31.655 74.0187 34.485 70.0712 34.485Z" fill="#E85E4A"/>
</svg>
